<svg width="24" height="18" viewBox="0 0 24 18" fill="none" xmlns="http://www.w3.org/2000/svg">
<path d="M23.7609 4.20029C23.7609 4.20029 23.5266 2.54561 22.8047 1.81904C21.8906 0.862793 20.8688 0.858105 20.4 0.801855C17.0438 0.558105 12.0047 0.558105 12.0047 0.558105H11.9953C11.9953 0.558105 6.95625 0.558105 3.6 0.801855C3.13125 0.858105 2.10938 0.862793 1.19531 1.81904C0.473438 2.54561 0.24375 4.20029 0.24375 4.20029C0.24375 4.20029 0 6.14561 0 8.08623V9.90498C0 11.8456 0.239062 13.7909 0.239062 13.7909C0.239062 13.7909 0.473437 15.4456 1.19062 16.1722C2.10469 17.1284 3.30469 17.0956 3.83906 17.1987C5.76094 17.3815 12 17.4378 12 17.4378C12 17.4378 17.0438 17.4284 20.4 17.1894C20.8688 17.1331 21.8906 17.1284 22.8047 16.1722C23.5266 15.4456 23.7609 13.7909 23.7609 13.7909C23.7609 13.7909 24 11.8503 24 9.90498V8.08623C24 6.14561 23.7609 4.20029 23.7609 4.20029ZM9.52031 12.1128V5.36748L16.0031 8.75185L9.52031 12.1128Z" fill="#AFB1BA"/>
</svg>
