<svg width="72" height="136" viewBox="0 0 72 136" fill="none" xmlns="http://www.w3.org/2000/svg">
<path d="M30.3711 102.148C30.3711 96.4844 30.8919 91.4714 31.9336 87.1094C32.9753 82.6823 34.2773 78.6458 35.8398 75C37.4023 71.2891 39.0625 67.8385 40.8203 64.6484C42.6432 61.3932 44.3359 58.138 45.8984 54.8828C47.4609 51.5625 48.763 48.0794 49.8047 44.4336C50.8464 40.7878 51.3672 36.6862 51.3672 32.1289C51.3672 27.8971 50.8464 24.2188 49.8047 21.0938C48.763 17.9688 47.2982 15.3646 45.4102 13.2812C43.5221 11.1979 41.276 9.63542 38.6719 8.59375C36.1328 7.55208 33.3659 7.03125 30.3711 7.03125C27.7018 7.03125 25.2279 7.35677 22.9492 8.00781C20.7357 8.59375 18.8151 9.47266 17.1875 10.6445C15.5599 11.7513 14.2904 13.0859 13.3789 14.6484C12.4674 16.1458 12.0117 17.7734 12.0117 19.5312C12.0117 21.4193 12.3372 22.9492 12.9883 24.1211C13.6393 25.293 14.3229 26.3672 15.0391 27.3438C15.8203 28.3203 16.5365 29.3294 17.1875 30.3711C17.8385 31.3477 18.1641 32.6172 18.1641 34.1797C18.1641 36.9141 17.4154 39.0951 15.918 40.7227C14.4206 42.2852 12.5977 43.0664 10.4492 43.0664C8.95182 43.0664 7.55208 42.7409 6.25 42.0898C5.01302 41.3737 3.9388 40.3971 3.02734 39.1602C2.11589 37.9232 1.36719 36.4583 0.78125 34.7656C0.260417 33.0078 0 31.1198 0 29.1016C0 23.8281 1.07422 19.3685 3.22266 15.7227C5.37109 12.0117 8.10547 9.01693 11.4258 6.73828C14.8112 4.39453 18.5547 2.70182 22.6562 1.66016C26.8229 0.553385 30.8919 0 34.8633 0C40.1367 0 44.987 0.716146 49.4141 2.14844C53.9062 3.51562 57.7474 5.53385 60.9375 8.20312C64.1927 10.8073 66.7318 14.0299 68.5547 17.8711C70.3776 21.6471 71.2891 25.9115 71.2891 30.6641C71.2891 35.3516 70.3776 39.7135 68.5547 43.75C66.7969 47.7214 64.5508 51.5625 61.8164 55.2734C59.1471 58.9193 56.2174 62.5326 53.0273 66.1133C49.9023 69.6289 46.9727 73.2422 44.2383 76.9531C41.569 80.6641 39.3229 84.6029 37.5 88.7695C35.7422 92.8711 34.8633 97.3307 34.8633 102.148H30.3711ZM33.3984 114.062C34.8307 114.062 36.1979 114.355 37.5 114.941C38.8021 115.527 39.9089 116.309 40.8203 117.285C41.7969 118.262 42.5456 119.401 43.0664 120.703C43.6523 122.005 43.9453 123.372 43.9453 124.805C43.9453 126.302 43.6523 127.702 43.0664 129.004C42.5456 130.241 41.7969 131.348 40.8203 132.324C39.9089 133.301 38.8021 134.049 37.5 134.57C36.1979 135.156 34.8307 135.449 33.3984 135.449C31.901 135.449 30.5013 135.156 29.1992 134.57C27.8971 134.049 26.7578 133.301 25.7812 132.324C24.8047 131.348 24.0234 130.241 23.4375 129.004C22.9167 127.702 22.6562 126.302 22.6562 124.805C22.6562 123.372 22.9167 122.005 23.4375 120.703C24.0234 119.401 24.8047 118.262 25.7812 117.285C26.7578 116.309 27.8971 115.527 29.1992 114.941C30.5013 114.355 31.901 114.062 33.3984 114.062Z" fill="#3E424D"/>
</svg>
