<svg width="28" height="23" viewBox="0 0 28 23" fill="none" xmlns="http://www.w3.org/2000/svg">
<g opacity="0.5">
<path opacity="0.7" fill-rule="evenodd" clip-rule="evenodd" d="M0.815632 11.0124C0.599743 10.8402 0.284627 10.8752 0.1118 11.0906C-0.0610277 11.306 -0.0261195 11.6201 0.189769 11.7923L14.0997 22.8862C14.2153 22.9784 14.3593 23.0112 14.4947 22.9887C14.6267 23.0024 14.7637 22.9641 14.8724 22.8713L27.8258 11.8053C28.0357 11.626 28.06 11.3108 27.8799 11.1015C27.6998 10.8921 27.3837 10.8678 27.1737 11.0472L14.4684 21.9012L0.815632 11.0124Z" fill="white"/>
</g>
<g opacity="0.7">
<path fill-rule="evenodd" clip-rule="evenodd" d="M0.815632 1.10688C0.599743 0.934698 0.284627 0.969711 0.1118 1.18508C-0.0610277 1.40046 -0.0261195 1.71463 0.189769 1.88681L14.0997 12.9807C14.2153 13.0728 14.3593 13.1056 14.4947 13.0831C14.6267 13.0968 14.7637 13.0586 14.8724 12.9657L27.8258 1.89982C28.0357 1.72045 28.06 1.40532 27.8799 1.19596C27.6998 0.98659 27.3837 0.962269 27.1737 1.14163L14.4684 11.9957L0.815632 1.10688Z" fill="white"/>
</g>
</svg>
